PathFileType	4	(X/Y/Z)	C:/Users/opensim2020/Desktop/walking_exp_matlab/subject02_walking09_straight_03.trc	
DataRate	CameraRate	NumFrames	NumMarkers	Units	OrigDataRate	OrigDataStartFrame	OrigNumFrames	
100.00	100.00	4	42	mm	100.00	2341	262	
Frame#	Time	LFHD			RFHD			LBHD			RBHD			C7			T10			CLAV			STRN			RBAK			LSHO			LUPA			LELB			LFRM			LWRA			LWRB			LFIN			RSHO			RUPA			RELB			RFRM			RWRA			RWRB			RFIN			LASI			RASI			LPSI			RPSI			LTHI			LKNE			LTIB			LANK			LHEE			LTOE			RTHI			RKNE			RTIB			RANK			RHEE			RTOE			*39			*40			*41			
		X1	Y1	Z1	X2	Y2	Z2	X3	Y3	Z3	X4	Y4	Z4	X5	Y5	Z5	X6	Y6	Z6	X7	Y7	Z7	X8	Y8	Z8	X9	Y9	Z9	X10	Y10	Z10	X11	Y11	Z11	X12	Y12	Z12	X13	Y13	Z13	X14	Y14	Z14	X15	Y15	Z15	X16	Y16	Z16	X17	Y17	Z17	X18	Y18	Z18	X19	Y19	Z19	X20	Y20	Z20	X21	Y21	Z21	X22	Y22	Z22	X23	Y23	Z23	X24	Y24	Z24	X25	Y25	Z25	X26	Y26	Z26	X27	Y27	Z27	X28	Y28	Z28	X29	Y29	Z29	X30	Y30	Z30	X31	Y31	Z31	X32	Y32	Z32	X33	Y33	Z33	X34	Y34	Z34	X35	Y35	Z35	X36	Y36	Z36	X37	Y37	Z37	X38	Y38	Z38	X39	Y39	Z39	X40	Y40	Z40	X41	Y41	Z41	X42	Y42	Z42	

164	1.630	-1021.21259	206.27470	1745.08020	-878.22467	190.65352	1723.36560	-1048.39551	109.59957	1632.06006	-909.74707	83.65129	1605.07361	-970.85510	66.16370	1505.86975	-962.45789	17.71189	1231.45703	-988.77875	206.09837	1441.59509	-988.58783	262.01682	1269.63123	-905.97412	14.95804	1331.78589	-1155.36731	132.73883	1485.83899	-1239.18970	137.52452	1284.99988	-1254.05518	161.24048	1143.83276	-1257.52881	215.92773	1021.75684	-1214.90149	310.73434	929.69116	-1249.22351	269.19913	911.26233	-1249.79260	313.19681	862.19916	-788.48669	156.86517	1467.49377	-707.95953	124.58057	1276.73987	-696.48883	129.18187	1129.43848	-680.03986	154.30815	1011.49158	-701.53241	200.87759	884.74524	-669.83441	153.33807	881.37665	-668.79144	189.34607	817.98889	-1121.87341	234.98874	963.55664	-869.13879	273.42786	968.39569	-1012.01031	40.25382	1012.07983	-896.01935	49.03994	1018.14972	-1158.35693	110.03768	661.13586	-1130.27612	45.74025	475.50861	-1111.62903	-95.50470	342.70016	-1074.05518	-198.61293	142.28624	-1016.78845	-230.52029	135.58176	-1096.71716	-84.26323	32.45013	-785.16180	268.84601	672.18152	-832.24860	318.84634	471.18109	-827.79132	304.10657	282.56720	-866.58557	306.81079	91.20779	-925.13171	276.67505	38.67070	-850.20081	461.01321	40.81490	-948.68274	76.65816	1770.27136	-3360.36304	2845.33350	1034.13037			 
165	1.640	-1018.85596	214.57875	1746.31287	-876.32556	199.20541	1724.26550	-1046.24683	117.75899	1633.56104	-907.67755	91.80270	1606.36597	-969.19421	74.06691	1506.69409	-960.55988	26.96623	1232.05945	-987.13495	214.37505	1443.15979	-986.95349	270.24994	1271.24890	-904.30780	23.91540	1332.30969	-1153.54932	140.66624	1487.57275	-1236.89893	144.39459	1286.38416	-1251.62903	166.68735	1145.31287	-1255.80127	218.30971	1021.92072	-1214.72998	311.10284	927.25854	-1248.54846	268.95233	910.08545	-1249.96277	311.44818	859.87689	-786.95868	164.77356	1469.16003	-706.44080	134.46376	1277.48853	-695.22894	140.49167	1130.69348	-678.70215	165.49823	1012.78320	-700.32764	211.39023	885.76855	-668.16180	164.30161	882.86188	-667.52136	199.58304	819.07544	-1118.46008	245.31117	964.56830	-866.34039	283.33746	970.72974	-1010.52631	50.06950	1012.86896	-894.36041	58.56919	1018.71191	-1158.12268	122.53810	661.10699	-1132.03455	61.12645	475.66269	-1112.83008	-82.41641	346.60556	-1075.03491	-190.66066	149.42241	-1017.31598	-221.70390	144.41209	-1096.77319	-83.83923	32.43493	-783.67737	278.72305	672.81213	-831.16699	323.35895	470.59625	-828.01935	305.60080	282.29163	-867.27386	307.30405	91.12936	-925.26746	276.97449	38.52412	-850.83112	461.68826	40.54219	-946.22766	84.94367	1771.54529	-3357.10938	2846.14160	1034.06458			 
166	1.650	-1016.60712	222.90347	1747.72754	-874.08038	207.42699	1725.34668	-1044.19568	125.86180	1635.14368	-905.65253	99.89185	1607.70166	-967.57220	81.94227	1507.49695	-958.57776	36.27350	1232.67859	-985.50769	222.56026	1444.78394	-985.51575	279.12900	1273.09424	-902.69977	32.69657	1332.92920	-1151.76184	148.34787	1489.14172	-1234.65564	151.37357	1287.96216	-1248.83386	171.91052	1146.68884	-1254.28870	220.47694	1022.30658	-1214.50171	311.10443	924.87579	-1248.21143	268.16367	909.19751	-1250.39282	309.33377	857.91748	-785.40070	172.61923	1470.70874	-704.64771	144.89906	1278.92786	-693.96991	151.68167	1132.04260	-677.46985	176.69817	1014.29962	-699.11420	222.16202	887.14276	-666.46826	175.49298	884.36475	-666.08130	210.42023	820.30176	-1114.88708	255.22903	965.66650	-863.47943	292.77594	972.86145	-1008.82483	59.46327	1013.79846	-892.60876	68.04195	1019.31659	-1157.62830	135.60535	660.83258	-1133.80347	77.12737	475.65216	-1113.90222	-68.36886	350.29105	-1076.01709	-181.43398	156.45746	-1017.65234	-211.09288	153.13602	-1096.56311	-82.88410	32.87266	-782.12592	287.50659	673.97388	-830.44165	327.27869	469.97070	-827.85779	307.17725	282.07785	-867.43799	307.63419	91.17494	-925.32013	277.02014	38.58489	-851.09100	462.03003	40.29721	-944.00525	93.24956	1773.27795	-3360.36621	2845.29492	1034.08350			 
167	1.660	-1014.27203	231.17706	1749.05640	-871.73956	215.59706	1726.38367	-1042.17456	133.92751	1636.78027	-903.81818	107.89607	1609.07288	-965.70459	90.00261	1508.67163	-956.51941	45.27161	1233.50134	-983.96674	230.67436	1446.47852	-984.02338	288.29147	1275.02258	-901.36346	41.34585	1333.68616	-1150.04700	155.96408	1490.87146	-1232.93359	158.43152	1289.56653	-1246.38611	177.12639	1148.24451	-1252.88245	222.51122	1022.88733	-1214.36035	310.90897	922.63354	-1247.72229	267.25247	908.44696	-1250.76416	307.00821	856.15424	-783.89838	180.75739	1472.36108	-703.02753	154.84750	1280.15332	-692.72937	162.72981	1133.41504	-676.17041	188.15726	1015.77850	-697.89600	233.20718	888.42017	-664.95044	186.57530	885.92847	-664.76874	221.12338	821.32635	-1111.39490	265.42599	966.87256	-860.80109	301.98834	974.87555	-1007.00513	68.32064	1015.10217	-890.80042	77.33807	1020.24945	-1157.65979	148.58136	660.46991	-1135.57495	93.60542	475.48495	-1114.77759	-53.43994	353.91440	-1077.10547	-170.65764	163.25912	-1018.25110	-199.50453	161.76701	-1096.22131	-80.89856	33.49148	-780.69275	295.33234	675.23071	-829.57977	331.30496	470.09293	-827.24683	309.21487	281.95963	-867.43909	307.99930	91.21732	-925.34393	276.70798	38.72500	-851.35150	462.33218	40.12672	-941.58545	101.68819	1774.59631	-3360.30396	2845.20703	1034.04846			 
